<svg xmlns="http://www.w3.org/2000/svg" width="1600" height="1000" viewBox="0 0 1600 1000" role="img" aria-label="FE'Ì EÌ2 ©'1 ©'1HÌ*'">
  <!-- PLACEHOLDER: replace with real product capture ’ dashboard-hero.webp (16:10, RTL admin shell, no promo overlays) -->
  <rect width="1600" height="1000" fill="hsl(30 14.3% 97.6%)"/>
  <!-- App frame -->
  <rect x="48" y="56" width="1504" height="888" rx="20" fill="hsl(0 0% 100%)" stroke="hsl(214 31.8% 91.4%)" stroke-width="2"/>
  <!-- Header -->
  <rect x="48" y="56" width="1504" height="72" rx="20" fill="hsl(0 0% 100%)"/>
  <rect x="48" y="108" width="1504" height="20" fill="hsl(0 0% 100%)"/>
  <line x1="48" y1="128" x2="1552" y2="128" stroke="hsl(214 31.8% 91.4%)" stroke-width="2"/>
  <rect x="1408" y="78" width="36" height="36" rx="10" fill="hsl(220 85% 42%)"/>
  <path d="M1419 86v22M1419 97l11-11M1424 97l11.5 11" stroke="hsl(0 0% 100%)" stroke-width="3.2" stroke-linecap="round" stroke-linejoin="round" fill="none"/>
  <rect x="1288" y="88" width="100" height="16" rx="4" fill="hsl(218 89.3% 32.9%)"/>
  <rect x="80" y="88" width="160" height="16" rx="4" fill="hsl(214 31.8% 91.4%)"/>
  <!-- Sidebar (RTL start = right) -->
  <rect x="1208" y="148" width="312" height="764" rx="16" fill="hsl(0 0% 100%)" stroke="hsl(214 31.8% 91.4%)" stroke-width="2"/>
  <rect x="1232" y="176" width="160" height="12" rx="3" fill="hsl(215 16.3% 46.9%)"/>
  <rect x="1232" y="212" width="264" height="40" rx="10" fill="hsl(216 100% 97.1%)"/>
  <rect x="1248" y="226" width="120" height="12" rx="3" fill="hsl(218 89.3% 32.9%)"/>
  <rect x="1232" y="272" width="264" height="40" rx="10" fill="hsl(210 40% 98%)"/>
  <rect x="1248" y="286" width="140" height="12" rx="3" fill="hsl(217 32.6% 17.5%)"/>
  <rect x="1232" y="328" width="264" height="40" rx="10" fill="hsl(210 40% 98%)"/>
  <rect x="1248" y="342" width="100" height="12" rx="3" fill="hsl(217 32.6% 17.5%)"/>
  <rect x="1232" y="384" width="264" height="40" rx="10" fill="hsl(210 40% 98%)"/>
  <rect x="1248" y="398" width="150" height="12" rx="3" fill="hsl(217 32.6% 17.5%)"/>
  <rect x="1232" y="440" width="200" height="10" rx="3" fill="hsl(214 31.8% 91.4%)"/>
  <!-- Main workspace -->
  <rect x="80" y="148" width="1104" height="764" rx="16" fill="hsl(0 0% 100%)" stroke="hsl(214 31.8% 91.4%)" stroke-width="2"/>
  <rect x="112" y="180" width="220" height="18" rx="4" fill="hsl(222 47.4% 11.2%)"/>
  <rect x="112" y="212" width="360" height="12" rx="3" fill="hsl(215 16.3% 46.9%)"/>
  <!-- Table chrome -->
  <rect x="112" y="256" width="1040" height="612" rx="14" fill="hsl(210 40% 98%)" stroke="hsl(214 31.8% 91.4%)" stroke-width="2"/>
  <rect x="112" y="256" width="1040" height="52" fill="hsl(0 0% 100%)"/>
  <rect x="136" y="274" width="120" height="14" rx="3" fill="hsl(215 16.3% 46.9%)"/>
  <rect x="320" y="274" width="90" height="14" rx="3" fill="hsl(215 16.3% 46.9%)"/>
  <rect x="480" y="274" width="110" height="14" rx="3" fill="hsl(215 16.3% 46.9%)"/>
  <rect x="680" y="274" width="80" height="14" rx="3" fill="hsl(215 16.3% 46.9%)"/>
  <line x1="112" y1="308" x2="1152" y2="308" stroke="hsl(214 31.8% 91.4%)" stroke-width="2"/>
  <rect x="136" y="332" width="160" height="12" rx="3" fill="hsl(217 32.6% 17.5%)"/>
  <rect x="320" y="332" width="70" height="12" rx="3" fill="hsl(215 16.3% 46.9%)"/>
  <rect x="480" y="328" width="72" height="20" rx="6" fill="hsl(216 100% 97.1%)"/>
  <rect x="136" y="388" width="140" height="12" rx="3" fill="hsl(217 32.6% 17.5%)"/>
  <rect x="320" y="388" width="70" height="12" rx="3" fill="hsl(215 16.3% 46.9%)"/>
  <rect x="480" y="384" width="72" height="20" rx="6" fill="hsl(215 100% 93.9%)"/>
  <rect x="136" y="444" width="180" height="12" rx="3" fill="hsl(217 32.6% 17.5%)"/>
  <rect x="320" y="444" width="70" height="12" rx="3" fill="hsl(215 16.3% 46.9%)"/>
  <rect x="480" y="440" width="72" height="20" rx="6" fill="hsl(216 100% 97.1%)"/>
  <rect x="136" y="500" width="150" height="12" rx="3" fill="hsl(217 32.6% 17.5%)"/>
  <rect x="320" y="500" width="70" height="12" rx="3" fill="hsl(215 16.3% 46.9%)"/>
  <rect x="480" y="496" width="72" height="20" rx="6" fill="hsl(216 100% 97.1%)"/>
  <rect x="136" y="556" width="170" height="12" rx="3" fill="hsl(217 32.6% 17.5%)"/>
  <rect x="320" y="556" width="70" height="12" rx="3" fill="hsl(215 16.3% 46.9%)"/>
  <rect x="480" y="552" width="72" height="20" rx="6" fill="hsl(215 100% 93.9%)"/>
  <rect x="136" y="612" width="130" height="12" rx="3" fill="hsl(217 32.6% 17.5%)"/>
  <rect x="320" y="612" width="70" height="12" rx="3" fill="hsl(215 16.3% 46.9%)"/>
  <rect x="480" y="608" width="72" height="20" rx="6" fill="hsl(216 100% 97.1%)"/>
</svg>
